# xmcd
#
# Track frame offsets: 
#        183
#        45170
#        68098
#        92958
#        121305
#        143755
#        170468
#        193828
#        216663
#        239048
#        263118
#        288118
#
# Disc length: 4058 seconds
#
# Revision: 7
# Processed by: cddbd v1.5.2PL0 Copyright (c) Steve Scherf et al.
# Submitted via: ExactAudioCopy v1.0b3
#
DISCID=b60fd80c
DTITLE=J.S Bach - Bach, JS
DYEAR=1968
DGENRE=Classique
TTITLE0=BWV1050 Brandenburgisches Konzert Nr 5 D-dur 1 Allegro
TTITLE1=BWV1050 Brandenburgisches Konzert Nr 5 D-dur 2 Affettuoso
TTITLE2=BWV1050 Brandenburgisches Konzert Nr 5 D-dur 3 Allegro
TTITLE3=BWV1051 Brandenburgisches Konzert Nr 6 B-dur 1 (ohne Satzbezei
TTITLE3=chnung)
TTITLE4=BWV1051 Brandenburgisches Konzert Nr 6 B-dur 2 Adagio ma non t
TTITLE4=anto
TTITLE5=BWV1051 Brandenburgisches Konzert Nr 6 B-dur 3 Allegro
TTITLE6=BWV1055 Konzert für Oboe d'Amore, Streicher u Basso continuo A
TTITLE6=dur 1 (ohne Satzbezeichnung)
TTITLE7=BWV1055 Konzert für Oboe d'Amore, Streicher u Basso continuo A
TTITLE7=dur 2 Larghetto
TTITLE8=BWV1055 Konzert für Oboe d'Amore, Streicher u Basso continuo A
TTITLE8=dur 3 Allegro ma non tanto
TTITLE9=BWV1060 Konzert für Violine, Oboe, Streicher u Basso continuo 
TTITLE9=d-moll 1 Allegro
TTITLE10=BWV1060 Konzert für Violine, Oboe, Streicher u Basso continuo
TTITLE10=d-moll 2 Adagio
TTITLE11=BWV1060 Konzert für Violine, Oboe, Streicher u Basso continuo
TTITLE11=d-moll 3 Allegro
EXTD=YEAR: 1968
EXTT0=
EXTT1=
EXTT2=
EXTT3=
EXTT4=
EXTT5=
EXTT6=
EXTT7=
EXTT8=
EXTT9=
EXTT10=
EXTT11=
PLAYORDER=
